<svg height="469.33333pt" viewBox="0 0 469.33333 469.33333" width="469.33333pt" xmlns="http://www.w3.org/2000/svg"><path d="m234.667969 0c-129.386719 0-234.667969 105.28125-234.667969 234.667969s105.28125 234.664062 234.667969 234.664062 234.664062-105.277343 234.664062-234.664062-105.277343-234.667969-234.664062-234.667969zm-8.109375 218.667969h16.214844c24.9375 0 45.226562 20.285156 45.226562 45.226562 0 22.421875-16.171875 40.875-37.332031 44.628907v16.789062c0 8.832031-7.167969 16-16 16s-16-7.167969-16-16v-15.980469h-21.335938c-8.832031 0-16-7.167969-16-16s7.167969-16 16-16h45.441407c7.296874 0 13.226562-5.929687 13.226562-13.226562 0-7.507813-5.929688-13.4375-13.226562-13.4375h-16.214844c-24.9375 0-45.226563-20.289063-45.226563-45.226563 0-22.421875 16.171875-40.875 37.335938-44.628906v-16.8125c0-8.832031 7.167969-16 16-16s16 7.167969 16 16v16h21.332031c8.832031 0 16 7.167969 16 16s-7.167969 16-16 16h-45.441406c-7.292969 0-13.226563 5.929688-13.226563 13.226562 0 7.507813 5.933594 13.441407 13.226563 13.441407zm0 0"/></svg>