<svg width="23" height="16" viewBox="0 0 23 16" fill="none" xmlns="http://www.w3.org/2000/svg">
<path id="Vector" d="M19.1348 0.662613C20.9396 0.662613 22.4027 2.10193 22.4432 3.8984L22.4439 3.97465V11.8936C22.4439 13.7368 20.9871 15.22 19.1558 15.2604L19.0793 15.2612C18.6368 15.2625 18.1984 15.1762 17.7894 15.0074C17.3804 14.8386 17.0088 14.5906 16.6961 14.2776C16.3834 13.9646 16.1356 13.5928 15.9672 13.1836C15.7987 12.7745 15.7129 12.336 15.7146 11.8936V3.97465C15.6961 2.14261 17.1751 0.662613 19.005 0.662613H19.1348ZM19.2271 9.65493H19.0607C17.8222 9.63642 16.8238 10.6543 16.8238 11.8938C16.8238 13.1119 17.7873 14.0976 18.9957 14.1317L19.0607 14.1327H19.2271C20.3734 14.1327 21.2979 13.1336 21.2979 11.8938C21.2979 10.6543 20.3734 9.65493 19.2271 9.65493ZM11.222 0.662613C11.6644 0.661293 12.1028 0.747518 12.5118 0.916323C12.9208 1.08513 13.2924 1.33318 13.6051 1.64619C13.9179 1.9592 14.1656 2.33099 14.334 2.74014C14.5025 3.14929 14.5883 3.58773 14.5866 4.0302V11.8936C14.5883 12.336 14.5025 12.7744 14.3341 13.1836C14.1656 13.5927 13.9179 13.9645 13.6052 14.2775C13.2925 14.5905 12.921 14.8386 12.512 15.0074C12.103 15.1762 11.6647 15.2624 11.2222 15.2612C10.7797 15.2625 10.3413 15.1763 9.9323 15.0075C9.52327 14.8387 9.15167 14.5907 8.8389 14.2777C8.52614 13.9647 8.27839 13.5929 8.10992 13.1837C7.94146 12.7745 7.85561 12.3361 7.85731 11.8936V4.0302C7.85561 3.58773 7.94145 3.14929 8.1099 2.74014C8.27835 2.33099 8.52608 1.9592 8.83882 1.64619C9.15156 1.33318 9.52313 1.08513 9.93213 0.916323C10.3411 0.747518 10.7795 0.661293 11.222 0.662613ZM3.36468 0.662613C3.80717 0.66126 4.24556 0.747462 4.6546 0.916252C5.06363 1.08504 5.43523 1.33309 5.748 1.6461C6.06076 1.95912 6.30851 2.33091 6.47697 2.74008C6.64544 3.14925 6.73129 3.58771 6.72959 4.0302V11.8936C6.73132 12.3361 6.64549 12.7746 6.47702 13.1838C6.30856 13.593 6.06079 13.9649 5.748 14.2779C5.4352 14.591 5.06356 14.839 4.65448 15.0078C4.2454 15.1766 3.80697 15.2628 3.36444 15.2614C1.49757 15.2614 2.49086e-05 13.7441 2.49086e-05 11.8938V4.0302C-0.00168011 3.58773 0.0841641 3.14929 0.252614 2.74014C0.421064 2.33099 0.668791 1.9592 0.98153 1.64619C1.29427 1.33318 1.66584 1.08513 2.07485 0.916323C2.48385 0.747518 2.92221 0.661293 3.36468 0.662613Z" fill="#F2F2F2"/>
</svg>
